<?xml version="1.0" encoding="utf-8"?>
<!-- Generator: Adobe Illustrator 26.0.0, SVG Export Plug-In . SVG Version: 6.00 Build 0)  -->
<svg version="1.1" id="Layer_1" xmlns="http://www.w3.org/2000/svg" xmlns:xlink="http://www.w3.org/1999/xlink" x="0px" y="0px"
	 viewBox="0 0 1366 768" style="enable-background:new 0 0 1366 768;" xml:space="preserve">
<style type="text/css">
	.st0{fill:#7DBFC9;}
	.st1{fill:#7EA172;}
	.st2{fill:#14342B;}
</style>
<g>
	<ellipse class="st0" cx="808.06" cy="430.67" rx="341.18" ry="337.33"/>
</g>
<g>
	<g>
		<g>
			<path class="st1" d="M577.69,603.18c-0.15,12.7-0.47,21.35-1.7,26.64c-1.23,5.29-3.45,7.69-7.01,7.55
				c-4.25-0.17-9.38-3.25-15.8-8.82c-6.42-5.57-13.8-13.37-21.97-23.2c-9.19-11.06-17.32-23.04-24.76-35.15
				c-10.55-17.18-17.8-36.47-20.95-55.39c-3.41-20.46-2.17-42.1,2.76-62.43c4.89-20.17,13.7-39.71,24.85-57.98
				c8.31-13.62,19.94-26.8,34.06-35.09c23.35-13.71,28.08,12.67,30.54,29.22c1.17,12.28,0.49,25.7-1.31,37.79
				c-1.95,13.08-4.8,24.45-8.97,33.72c-4.17,9.27-9.05,15.02-14.87,17.51c-2.37,1.01-3.92-0.16-4.65-3.51
				c-0.2-0.93-0.3-3.38-0.23-7.36c0.38-7.92,0.45-16.46-0.03-25.25c-0.67-12.36-1.37-22.03-2.09-28.38
				c-1.3-11.35-2.42-16.5-3.85-15.75c-3.39,1.75-7.79,8.62-12.64,20.43c-4.84,11.81-8.03,23.74-9.69,35.48
				c-1.46,10.33-2.04,22.16-1.44,35.05c0.58,12.45,2.5,25.68,5.44,37.8c2.97,12.21,6.65,23.15,10.83,32.82
				c3.98,9.2,8.33,16.47,12.77,22.01c4.44,5.53,9.36,8.48,10.78,7.53c7.06-4.71,1.6-35.33,0.44-47.76
				c-0.56-8.94-0.61-14.83-0.51-17.41c0.1-2.57,0.63-5.05,1.59-7.45c2.53-6.64,6.46-13.3,11.88-20.11
				c5.42-6.81,10.12-11.18,13.78-12.78c4.29-1.87,7.32,1.47,9.19,10.03c0.15,0.7,0.72,3.97,1.44,9.51
				c4.83,37.29,9.28,76.15,16.6,113.61c4.27,21.85,9.61,43.71,13.61,65.7c0.9,5.53,0.57,10-0.77,13.21
				c-1.34,3.21-3.43,4.39-6.48,3.72c-2.52-0.55-5.83-2.55-10.08-5.88c-4.25-3.34-8.58-7.28-13.08-11.74
				c-4.5-4.46-8.27-8.55-11.22-12.34c-1.95-2.5-3.72-5.19-5.21-8.21c-1.49-3.02-2.55-6.05-3.07-9.19c-0.85-5.01-0.45-7.8,0.57-7.77
				c1.06,0.03,4.49,3.24,10.24,9.53c6.71,7.34,12.85,13.45,18.3,18.29c-3.99-9.06-8.93-20.51-14.5-34.65
				C584.89,622.58,580.85,611.2,577.69,603.18z"/>
		</g>
		<g>
			<path class="st1" d="M660.44,414.81c-0.65,8.12-0.94,12.21-1.47,20.31c-1.55,25.22-2.57,50.5-2.17,75.67
				c0.32,19.87,1.94,39.81,3.71,59.68c5.55-3.27,12.84-8.91,22.26-17.35c6.06-5.42,9.91-8.55,11.35-9.17
				c2.63-1.14,4.37,0.36,5.21,4.49c0.98,4.87,0.91,12.33-0.06,22.17c-0.97,9.84-2.42,18.49-4.37,25.95
				c-1.29,5.34-3.97,9.72-7.99,13.09c-4.02,3.38-10.68,6.8-19.63,9.93c-8.37,2.93-14.72,4.37-19.37,4.67
				c-0.06,0.02-1.53-0.22-3.7-1.04c-4.35-1.64-8.64-8.17-11.87-18.26c-4.34-13.53-7.03-27.83-9.43-41.89
				c-4.57-26.74-7.39-54-8.74-80.79c-2.32-46.19-2.87-95.89,7.77-141.85c1.44-6.39,3.45-11.78,5.96-16.22
				c2.51-4.43,6.04-8.74,10.51-12.94c4.33-4.08,9.37-7.77,15.12-10.98c5.35-2.98,9.17-3.86,11.44-2.61
				c2.27,1.25,3.55,4.92,3.88,11.05c0.31,5.84-0.52,17.59-2.11,35.59C664.64,367.83,662.4,391.31,660.44,414.81z"/>
		</g>
		<g>
			<path class="st1" d="M755.47,311.48c-4.67,12.89-7.7,23.95-9.52,32.06c-1.83,8.12-3.44,19.37-4.9,33.73
				c-1.06,10.43-1.26,21.44-1.09,32.33c0.15,9.77,0.98,22.44,3.04,37.13c2.35,16.8,5.46,33.75,10.7,49.9
				c4.09,12.59,8.76,21.34,13.81,26.3c5.06,4.96,10.39,6.12,16.06,3.46c4.61-2.16,8.88-7.52,12.86-16.17
				c3.98-8.65,7.24-19.18,9.84-31.51c2.74-12.96,4.26-26.92,4.89-40.03c0.62-12.88,0.23-26.95-1.5-39.76
				c-2.88-21.32-10.53-42.59-21.09-61.53c-4.15-7.84-6.39-13.38-6.82-16.73c-0.79-6.25,0.39-13.41,3.21-21.32
				c3.31-9.29,7.2-18.18,11.8-26.36c4.6-8.17,8.38-12.92,11.42-14.35c1.76-0.83,3.73-0.93,5.91-0.3c2.18,0.63,3.96,1.87,5.34,3.74
				c3.27,3.66,6.72,11.66,10.48,24.07c4.05,13.37,7.13,27.58,9.11,41.43c4.93,36.52,6.52,72.71,2.66,108.66
				c-3.28,30.54-9.56,62.58-23.18,90.25c-9.1,18.49-20.57,37.6-40.15,46.99c-8.6,4.13-17.91,4.9-27.42,2.6
				c-9.51-2.3-17.8-7.44-24.95-15.37c-15.69-16.79-21.72-40.61-25.79-61.87c-3.41-17.8-4.17-36.98-3.35-55.28
				c0.92-20.76,3.14-41.79,7.05-62c3.77-19.48,9.11-39.23,15.9-58.3c5.62-15.78,12.38-31.35,21.09-45.68
				c6.77-11.14,14.27-21.04,22.31-29.65c8.04-8.61,15.16-14.43,21.5-17.56c8.91-4.4,13.65-4.02,14.32,0.97
				c0.27,2-0.26,5.52-1.61,10.61c-2.7,7.58-5.22,13.28-7.51,17.02c-2.29,3.74-6.31,8.61-11.84,14.64
				c-6.05,6.62-10.4,12.29-13.01,16.65C762.41,294.62,758.98,301.78,755.47,311.48z"/>
		</g>
		<g>
			<path class="st1" d="M870.9,400.1c0.7-30.07,1.08-60.13,1.1-90.2c0.32-15.5,0.95-30.89,1.9-46.37c-0.35,0.31-1.07,1.5-2.17,3.56
				c-4.49,6.42-7.94,10.21-10.2,11.22c-3.19,1.43-5.2-0.15-5.99-4.73c-0.84-4.88-0.81-12.45,0.02-22.54
				c0.82-10.09,1.98-17.79,3.51-23.23c3.17-11.41,11.03-23.91,19.22-32.25c9.06-9.24,19.34-16.28,30.83-20.24
				c6.95-2.4,13.38-3.09,19.5-2.25c6.12,0.83,11.79,3.2,17.15,6.98c5.36,3.78,10.24,8.81,14.64,15.08
				c4.4,6.27,8.16,13.59,11.15,22.06c4.18,11.86,6.64,22.93,7.25,33.28c0.6,10.36-0.59,20.83-3.83,31.53
				c-3.57,11.78-8.16,20.69-13.24,26.25c-0.55,0.7-1.56,1.59-3.06,2.69c0.1,0.43,0.15,0.65,0.25,1.08
				c29.9-5.13,46.65,20.86,51.63,46.39c1.47,6.96,2.34,14.49,2.55,22.64c0.21,8.15-0.28,16.47-1.47,25.01
				c-1.2,8.54-3.09,16.76-5.65,24.6c-5.67,17.77-13.28,34.92-22.23,51.28c-8.51,15.55-18.16,30.58-29.19,44.5
				c-10.06,12.69-18.91,21.1-26.42,25.17c-6.31,3.41-12.45,5.39-18.45,5.89c-6,0.5-10.91-0.49-14.74-2.99
				c-3.83-2.5-5.99-6.27-6.45-11.3c-0.42-4.59-0.12-9.28,0.91-14.05c1.04-4.77,3.18-11.15,6.41-19.16
				c-0.23-0.26-0.35-0.39-0.58-0.66c-2.06,2.64-4.15,4.51-6.29,5.59c-4.51,2.3-8.42,1.74-11.75-1.71
				c-3.33-3.45-5.49-9.38-6.48-17.85c-0.56-4.78-0.7-16.48-0.61-35.46C870.22,439.97,870.53,420.04,870.9,400.1z M918.78,344.84
				c0.04,2.11,0.11,4.45,0.22,7.03c0.11,2.57,0.19,5,0.23,7.27c0.41,21.6,0.25,43.48-1.3,64.81c-1.07,14.69-2.49,29.62-5.34,44.25
				c-1.3,7.49-3.5,15.79-6.6,24.89c10.49,0.57,17.83,0.56,22.16,0.05c4.33-0.51,8.54-1.83,12.65-3.96
				c4.75-2.46,8.82-5.94,12.2-10.43c3.38-4.48,6.38-10.45,8.93-17.91c4.07-11.6,6.56-24.83,7.59-36.95
				c1.15-13.48,0.91-25.9-0.95-37.13c-2.03-12.27-6.09-21.6-11.98-28.13c-2.9-3.21-5.87-5.34-8.91-6.4c-3.04-1.05-7.16-1.12-12-0.65
				c-4.46,0.43-7.92,0.1-9.9-0.62C923.82,350.22,921.48,348.18,918.78,344.84z M911.38,225.58c3.18,33.61,5.4,67.19,6.81,100.92
				c0.98-0.11,1.92-0.37,2.83-0.77c4.04-1.79,8-7.55,11.7-16.95c4.61-11.74,7.4-23.19,8.41-34.46c1.01-11.26,0.17-21.36-2.28-30.53
				c-5.09-19.03-12.38-26.65-22.09-22.99C914.07,221.81,912.27,223.41,911.38,225.58z"/>
		</g>
		<g>
			<path class="st1" d="M1096.58,317.07c-12.24,3.27-18.76,5.29-32.44,9.93c0.6,1.94,0.9,2.91,1.49,4.85
				c2.86,9.45,6.58,17.6,11.33,24.25c4.75,6.66,8.7,9.27,11.95,7.98c3.31-1.31,7.47-5.63,12-12.48c4.53-6.85,8.94-15.68,12.44-25.81
				c0.55-1.78,0.81-2.66,1.31-4.39c0.94-2.79,1.44-4.78,1.6-6.07c1.14-4.88,1.91-7.24,2.65-7.38c0.88-0.17,2.24,1.57,4.01,5.22
				c1.93,3.98,3.74,8.59,5.33,13.89c1.6,5.31,2.79,10.52,3.58,15.67c0.79,5.15,0.92,8.97,0.52,11.41
				c-1.15,6.92-4.67,15.33-11.32,26.03c-6.64,10.7-14.57,20.67-23.37,29.52c-3.01,2.8-5.9,4.89-8.64,6.2
				c-9.39,4.49-18.73,5.16-27.93,1.45c-9.19-3.71-17.2-11.32-24.02-22.85c-7.72-13.05-12.52-27.8-15.82-42.5
				c-3.42-15.26-5.54-31-7.24-46.4c-1.84-16.67-3.16-33.77-4.3-50.62c-0.98-14.48-1.84-29.08-2.49-43.61
				c-0.49-10.95-0.71-20.44-0.7-28.37c0.01-7.93,0.2-13.38,0.96-16.73c0.76-3.36,2.12-4.37,4.51-3.47
				c3.76,1.41,9.36,6.47,17.52,14.54c8.15,8.07,16.49,16.76,24.51,26.5c3.53,4.28,7.09,8.9,10.55,13.96
				c3.47,5.06,6.11,9.56,7.96,13.43c2,4.19,3.34,8.35,3.79,12.61c0.45,4.26,0.04,8.26-1.35,11.69c-1.62,3.99-4.27,6.49-7.2,6.96
				c-2.93,0.48-5.26-0.95-6.92-4.36c-0.97-2-1.85-5.43-2.21-9.65c-0.32-3.77-1.21-9.22-3.37-15.52
				c-2.28-6.67-5.79-14.38-10.41-22.95c-4.61-8.56-8.75-15.02-12.05-19.71c-2.71-3.86-4.47-5.85-5.23-6.01
				c-1.22-0.25-0.49,3.21,1.12,11.44c1.61,8.23,3.22,17.09,5.24,26.09c1.88,8.4,3.9,17.26,6.19,26.4
				c2.29,9.14,4.79,18.25,7.64,27.16c13.59-3.27,27.05-6.52,41.02-7.78c4.01-0.37,7.35,1.99,10.17,6.88
				c2.63,4.56,4.97,12.25,5.07,23.83C1104.11,309.07,1101.09,315.81,1096.58,317.07z"/>
		</g>
	</g>
</g>
<g>
	<g>
		<g>
			<path class="st2" d="M588.67,601.42c0.01,11.86-0.2,19.99-1.3,25c-1.1,5.01-3.15,7.36-6.47,7.35c-3.96-0.02-8.76-2.77-14.78-7.84
				c-6.03-5.07-12.98-12.23-20.77-21.26c-8.62-10-16.86-21.12-23.89-32.24c-9.81-15.52-17.65-32.58-21.56-50.61
				c-4.07-18.74-3.96-38.22-0.1-56.98c3.88-18.89,10.9-38,21.17-53.66c8.18-12.48,18.1-25.51,31.63-33.43
				c19.83-11.62,30.51,8.04,31.07,25.85c1.41,10.95,1.37,22.75-0.03,34.87c-1.4,12.12-3.91,22.54-7.67,31.17
				c-3.75,8.63-8.27,14.08-13.77,16.55c-2.24,1-3.76-0.02-4.56-3.06c-0.22-0.85-0.44-3.14-0.44-6.74
				c0.01-7.16-0.09-15.08-0.84-23.09c-1.06-11.26-2.1-20.05-3.04-25.88c-1.69-10.42-3.01-15.16-4.38-14.43
				c-3.22,1.73-7.21,8.28-11.41,19.26c-4.2,10.98-6.78,21.88-7.92,32.64c-1.01,9.46-1.19,20.22-0.11,32.07
				c1.08,11.85,3.23,23.33,6.34,34.56c3.11,11.23,6.91,21.16,11.07,30.01c3.96,8.41,8.2,15.05,12.47,20.07
				c4.28,5.02,9.1,7.62,10.27,6.71c6.36-4.98,1.06-30.8-0.51-44.25c-0.72-8.24-0.91-13.66-0.87-16.03c0.04-2.37,0.48-4.67,1.34-6.91
				c2.25-6.19,5.84-12.45,10.87-18.89c5.02-6.44,9.43-10.63,12.9-12.23c4.08-1.88,7.07,1.06,9.05,8.86
				c0.16,0.64,0.67,3.55,1.58,8.69c4.84,35.06,10.42,70.15,17.49,104.62c4.17,20.33,9.43,40.77,13.1,61.33
				c0.83,5.23,0.47,9.54-0.84,12.72c-1.31,3.18-3.33,4.47-6.24,4.03c-2.39-0.36-5.52-2.08-9.51-5.06
				c-3.99-2.98-8.03-6.57-12.23-10.65c-4.2-4.09-7.72-7.87-10.49-11.4c-1.82-2.32-3.5-4.84-4.9-7.68c-1.41-2.84-2.43-5.69-2.94-8.66
				c-0.84-4.74-0.5-7.38,0.45-7.39c0.99-0.01,4.23,2.9,9.67,8.64c6.34,6.7,12.14,12.25,17.29,16.6c-3.75-8.46-8.45-19.12-13.8-32.22
				C595.7,619.29,591.75,608.79,588.67,601.42z"/>
		</g>
		<g>
			<path class="st2" d="M664.79,424.19c-0.45,7.52-0.65,11.27-1,18.73c-0.95,23.26-1.41,46.59-0.73,69.67
				c0.54,18.24,2.33,36.72,4.38,55c5.31-3.29,12.26-8.87,21.25-17.12c5.78-5.31,9.47-8.39,10.84-9.03c2.53-1.18,4.23,0.12,5.09,3.9
				c1.01,4.46,1.03,11.36,0.2,20.53c-0.83,9.17-2.15,17.26-3.97,24.29c-1.2,5.02-3.76,9.23-7.61,12.57
				c-3.86,3.35-10.26,6.87-18.86,10.22c-8.04,3.14-14.13,4.79-18.6,5.28c-0.06,0.02-1.46-0.13-3.55-0.8
				c-4.17-1.33-8.31-7.24-11.51-16.5c-4.29-12.44-6.87-25.69-9.48-38.52c-4.96-24.31-7.9-49.61-9.75-74.17
				c-3.19-42.3-5.15-88.38,3.81-130.84c1.21-5.96,3-11.01,5.32-15.21c2.32-4.19,5.65-8.32,9.91-12.4c4.13-3.96,8.98-7.6,14.54-10.83
				c5.18-3.01,8.91-4,11.19-2.96c2.27,1.04,3.64,4.36,4.12,9.99c0.47,5.37-0.03,16.24-1.12,32.91
				C667.81,380.65,666.13,402.41,664.79,424.19z"/>
		</g>
		<g>
			<path class="st2" d="M755.2,324.08c-4.31,12.12-7.07,22.5-8.7,30.08c-1.63,7.58-3,18.05-4.17,31.36
				c-0.85,9.67-0.85,19.85-0.5,29.86c0.31,9,1.18,20.76,3.55,34c2.72,15.17,5.73,30.69,11.14,45.38c4.2,11.41,8.8,19.23,13.78,23.54
				c4.98,4.32,10.17,5.11,15.65,2.37c4.44-2.23,8.52-7.39,12.25-15.58c3.73-8.18,6.77-18.01,9.07-29.55
				c2.3-11.54,3.69-23.9,4.12-37.12c0.43-13.21-0.26-25.47-2.08-36.53c-3.24-19.76-10.65-38.72-21.46-55.63
				c-4.16-7.01-6.43-12.01-6.91-15.09c-0.88-5.72,0.16-12.4,2.78-19.86c3.07-8.75,6.73-17.19,11.09-24.99
				c4.36-7.8,7.98-12.4,10.93-13.88c1.71-0.86,3.63-1.06,5.77-0.6c2.14,0.46,3.89,1.53,5.27,3.18c3.25,3.22,6.74,10.4,10.54,21.73
				c3.8,11.32,6.96,23.91,9.43,37.82c5.21,33.54,7.36,66.96,4.21,100c-2.7,28.27-8.21,58.75-21.07,84.37
				c-8.94,17.82-19.47,35.93-38.37,45.49c-8.4,4.25-17.36,5.47-26.63,3.84c-9.26-1.63-17.35-5.96-24.37-12.95
				c-14.98-14.32-22.3-36.66-25.78-55.84c-3.04-16.77-4.16-33.52-4.15-50.69c0.01-18.96,2.25-38.49,5.68-57.44
				c3.35-18.51,7.93-37.13,14.3-54.57c5.37-14.71,11.4-29.62,19.7-43.25c6.47-10.62,13.57-20.19,21.31-28.6
				c7.73-8.4,14.62-14.18,20.78-17.42c8.66-4.56,13.31-4.47,14.03,0.13c0.29,1.84-0.18,5.13-1.42,9.92
				c-2.53,7.17-4.9,12.58-7.08,16.17c-2.18,3.59-6.03,8.3-11.33,14.17c-5.8,6.44-9.95,11.91-12.42,16.08
				C761.68,308.14,758.46,314.92,755.2,324.08z"/>
		</g>
		<g>
			<path class="st2" d="M868.77,399.78c0.22-27.75,0.23-55.5-0.2-83.26c-0.09-14.32,0.35-28.75,1.32-43.04
				c-0.34,0.31-1.02,1.45-2.07,3.42c-4.3,6.19-7.61,9.88-9.79,10.93c-3.09,1.49-5.05,0.14-5.88-4.07
				c-0.88-4.48-0.93-11.49-0.23-20.9c0.7-9.41,1.75-16.63,3.19-21.78c3.39-11.25,9.73-21.74,18.52-31.13
				c8.79-9.39,18.81-16.34,30-20.72c6.77-2.65,13.02-3.67,18.97-3.23c5.94,0.44,11.43,2.36,16.61,5.63
				c5.18,3.27,9.88,7.76,14.12,13.44c4.24,5.68,7.86,12.38,10.75,20.18c4.05,10.93,6.47,21.17,7.12,30.8
				c0.65,9.63-0.4,19.44-3.41,29.52c-3.31,11.11-7.62,19.56-12.45,24.95c-0.52,0.67-1.49,1.55-2.91,2.63c0.1,0.4,0.15,0.6,0.25,0.99
				c27.82-6.03,44.92,16.25,50.43,40.52c1.55,6.35,2.54,13.24,2.91,20.72c0.37,7.48,0.1,15.14-0.86,23.02
				c-0.95,7.88-2.58,15.47-4.86,22.79c-5.78,16.93-12.08,32.94-20.27,48.31c-7.83,14.69-17.15,28.94-27.34,42.4
				c-9.2,12.14-17.99,20.38-25.25,24.5c-6.11,3.47-12.08,5.6-17.95,6.37c-5.87,0.77-10.7,0.11-14.5-1.99
				c-3.8-2.1-5.99-5.47-6.55-10.08c-0.51-4.21-0.31-8.55,0.61-13c0.91-4.45,2.88-10.45,5.87-17.99c-0.23-0.23-0.35-0.34-0.58-0.57
				c-1.95,2.54-3.96,4.37-6.02,5.48c-4.36,2.35-8.17,2.05-11.49-0.96c-3.31-3.01-5.52-8.36-6.63-16.12
				c-0.63-4.37-1-15.18-1.21-32.64C868.77,436.54,868.74,418.15,868.77,399.78z M914.34,346.42c0.07,1.95,0.17,4.1,0.31,6.47
				c0.14,2.37,0.27,4.62,0.33,6.7c0.61,19.76,0.67,39.86-0.21,59.69c-0.6,13.57-2.08,27.73-4.37,41.05
				c-1.18,6.88-3.1,14.73-5.93,23.28c10.23-0.01,17.39-0.4,21.6-1.08c4.21-0.68,8.29-2.12,12.24-4.28
				c4.57-2.51,8.46-5.91,11.65-10.22c3.19-4.3,5.97-9.94,8.28-16.95c3.4-10.39,5.62-21.91,6.56-34.42
				c0.94-12.51,0.35-23.81-1.65-34.04c-2.19-11.19-6.26-19.59-12.05-25.33c-2.85-2.82-5.75-4.65-8.7-5.47
				c-2.96-0.83-6.93-0.69-11.61-0.02c-4.31,0.62-7.66,0.49-9.58-0.09C919.28,351.13,916.99,349.37,914.34,346.42z M905.96,236.19
				c3.26,31.07,5.74,62.13,7.56,93.32c0.94-0.15,1.85-0.43,2.73-0.86c3.88-1.86,7.64-7.37,11.09-16.25
				c4.32-11.09,6.89-21.85,7.76-32.36c0.87-10.5-0.02-19.87-2.45-28.29c-5.04-17.48-12.11-24.25-21.5-20.31
				C908.55,232.53,906.81,234.13,905.96,236.19z"/>
		</g>
		<g>
			<path class="st2" d="M1084.24,313.65c-11.45,3.3-17.57,5.34-30.49,10.06c0.61,1.77,0.92,2.65,1.52,4.42
				c2.93,8.62,6.68,16,11.39,21.97c4.71,5.98,8.57,8.25,11.63,6.98c3.12-1.3,6.95-5.37,11.04-11.77c4.08-6.39,7.97-14.6,10.93-23.98
				c0.46-1.64,0.67-2.46,1.09-4.06c0.79-2.58,1.19-4.42,1.29-5.61c0.91-4.51,1.54-6.69,2.22-6.83c0.82-0.16,2.14,1.42,3.91,4.75
				c1.93,3.64,3.79,7.85,5.48,12.7c1.69,4.85,3.01,9.62,3.96,14.32c0.95,4.7,1.22,8.2,0.94,10.44c-0.8,6.35-3.78,14.08-9.68,24
				c-5.9,9.92-13.1,19.2-21.23,27.54c-2.79,2.64-5.5,4.63-8.09,5.91c-8.89,4.39-17.91,5.32-26.91,2.27
				c-9-3.05-16.89-9.77-23.83-20.02c-7.49-11.05-13.04-25.73-16.17-38.43c-3.38-13.7-6.05-28.38-7.73-42.57
				c-1.85-15.6-3.49-31.26-4.7-46.88c-1.04-13.54-1.97-27.22-2.6-40.8c-0.48-10.3-0.67-19.31-0.62-26.9
				c0.05-7.58,0.3-12.87,1.07-16.19c0.77-3.32,2.09-4.44,4.36-3.75c3.56,1.09,8.79,5.66,16.39,13.08
				c7.59,7.42,15.36,15.5,22.88,24.55c3.31,3.99,6.67,8.28,9.96,12.99c3.29,4.71,5.82,8.89,7.61,12.49
				c1.94,3.9,3.26,7.77,3.77,11.75c0.51,3.98,0.21,7.73-1.03,10.97c-1.44,3.77-3.88,6.17-6.62,6.7c-2.75,0.53-4.96-0.73-6.58-3.86
				c-0.94-1.84-1.82-5.02-2.21-8.96c-0.35-3.52-1.26-8.6-3.36-14.46c-2.22-6.2-5.58-13.36-9.96-21.33
				c-4.38-7.96-8.27-13.98-11.37-18.34c-2.55-3.58-4.19-5.42-4.91-5.53c-1.14-0.18-0.48,3.16,1.04,10.95
				c1.52,7.79,3.06,16.13,5.02,24.54c1.83,7.85,3.8,16.1,6.06,24.56c2.26,8.47,4.74,16.88,7.57,25.07
				c17.14-5.08,24.91-6.84,38.44-8.41c3.72-0.43,6.86,1.71,9.61,6.2c2.56,4.19,4.96,11.28,5.39,21.96
				C1091.1,306.12,1088.46,312.39,1084.24,313.65z"/>
		</g>
	</g>
</g>
<g>
	<path class="st1" d="M331.57,290.76v179.18c0,22.36-6.82,40.59-20.46,54.68c-13.64,14.1-31.28,21.14-52.91,21.14
		c-26.06,0-45.97-11.73-59.73-35.18c-8.48,12.64-17.58,21.66-27.29,27.07c-9.71,5.41-21.69,8.11-35.95,8.11
		c-22.62,0-39.95-7.05-51.99-21.14c-12.05-14.1-18.07-34.39-18.07-60.88V290.76h74.85v161.87c0,8.02,0.65,13.31,1.94,15.86
		c1.29,2.55,3.9,3.83,7.84,3.83c7.37,0,11.06-6.14,11.06-18.41V290.76h74.85v161.87c0,7.78,0.67,13.01,2.03,15.68
		c1.35,2.68,3.99,4.01,7.93,4.01c7.37,0,11.06-6.56,11.06-19.69V290.76H331.57z"/>
	<path class="st1" d="M440.71,357.84v181.74h-68.95V357.84H440.71z M406.42,276.73c9.34,0,17.42,3.25,24.24,9.75
		c6.82,6.5,10.23,14.19,10.23,23.06c0,9.48-3.23,17.26-9.68,23.33c-6.45,6.08-14.72,9.11-24.8,9.11c-10.08,0-18.34-3.04-24.8-9.11
		c-6.45-6.07-9.68-13.85-9.68-23.33c0-8.87,3.41-16.56,10.23-23.06C389,279.98,397.08,276.73,406.42,276.73z"/>
</g>
<g>
	<path class="st2" d="M1165,297.03c-0.02,0-0.05,0-0.07,0c-9.75-0.04-17.63-7.89-17.59-17.53
		c0.62-148.35-135.24-151.01-141.02-151.05c-9.74-0.07-17.6-7.91-17.56-17.54c0.04-9.62,7.91-17.39,17.64-17.39
		c0.01,0,0.02,0,0.03,0c3.06,0,75.59,0.71,127.1,51.93c32.84,32.66,49.37,77.81,49.14,134.19
		C1182.62,289.26,1174.72,297.03,1165,297.03z"/>
</g>
<g>
	<path class="st1" d="M1248.37,343.75c-0.79,0-1.59-0.05-2.4-0.16c-9.67-1.3-16.44-10.09-15.13-19.65
		c11.96-87.22-4.3-156.28-48.35-205.27c-75.78-84.3-210.49-83-211.85-82.97c-0.1,0-0.21,0-0.31,0c-9.6,0-17.48-7.61-17.66-17.14
		c-0.18-9.63,7.56-17.59,17.31-17.78c6.15-0.13,151.98-1.8,238.74,94.49c51.33,56.97,70.55,135.48,57.12,233.36
		C1264.65,337.39,1257.07,343.75,1248.37,343.75z"/>
</g>
<g>
	<path class="st2" d="M309.4,290.12v179.18c0,22.36-6.82,40.59-20.46,54.68c-13.64,14.1-31.28,21.14-52.91,21.14
		c-26.06,0-45.97-11.73-59.73-35.18c-8.48,12.64-17.58,21.66-27.29,27.07c-9.71,5.41-21.69,8.11-35.95,8.11
		c-22.62,0-39.95-7.05-51.99-21.14C49.02,509.9,43,489.6,43,463.11V290.12h74.85v161.87c0,8.02,0.65,13.31,1.94,15.86
		c1.29,2.55,3.9,3.83,7.84,3.83c7.37,0,11.06-6.14,11.06-18.41V290.12h74.85v161.87c0,7.78,0.67,13.01,2.03,15.68
		c1.35,2.68,3.99,4.01,7.93,4.01c7.37,0,11.06-6.56,11.06-19.69V290.12H309.4z"/>
	<path class="st2" d="M418.54,357.2v181.73h-68.95V357.2H418.54z M384.25,276.09c9.34,0,17.42,3.25,24.24,9.75
		c6.82,6.5,10.23,14.19,10.23,23.06c0,9.48-3.23,17.26-9.68,23.33c-6.45,6.08-14.72,9.11-24.8,9.11c-10.08,0-18.34-3.04-24.8-9.11
		c-6.45-6.07-9.68-13.85-9.68-23.33c0-8.87,3.41-16.56,10.23-23.06C366.83,279.34,374.91,276.09,384.25,276.09z"/>
</g>
</svg>
